<svg width="40" height="40" viewBox="0 0 40 40" fill="none" xmlns="http://www.w3.org/2000/svg">
<path fill-rule="evenodd" clip-rule="evenodd" d="M27.7309 7.23514C24.9059 7.23514 22.3696 7.79333 20.4851 8.67349C18.2457 9.71941 15.365 10.3299 12.2571 10.3299C10.5242 10.3299 8.86749 10.1403 7.35579 9.79401C6.43742 9.58366 5.68066 10.2703 5.68066 10.8931V27.5616C5.68066 28.8653 5.70359 29.1836 5.8684 29.5299C5.96337 29.7295 6.24138 30.0783 6.41468 30.2155L5.69457 31.1256L6.41469 30.2155C6.72881 30.464 6.93228 30.5266 7.874 30.7423C9.20853 31.048 10.6911 31.2196 12.2571 31.2196C14.4172 31.2196 16.4146 30.8931 18.0823 30.3417C18.6908 30.1405 19.3473 30.4707 19.5485 31.0792C19.7497 31.6878 19.4195 32.3442 18.8109 32.5454C16.8881 33.1812 14.6427 33.5407 12.2571 33.5407C10.5242 33.5407 8.86749 33.351 7.35579 33.0048C7.32548 32.9979 7.29538 32.991 7.26547 32.9842C6.41923 32.7908 5.72983 32.6334 4.97445 32.0357C4.52254 31.6781 4.02025 31.0477 3.77259 30.5274L4.81367 30.0319L3.77259 30.5274C3.3576 29.6555 3.35844 28.7929 3.35948 27.7249C3.35953 27.671 3.35958 27.6166 3.35958 27.5616V10.8931C3.35958 8.46807 5.82148 7.0614 7.874 7.53152C9.20853 7.83719 10.6911 8.00883 12.2571 8.00883C15.082 8.00883 17.6184 7.45064 19.5029 6.57048C21.7423 5.52457 24.623 4.91406 27.7309 4.91406C29.4637 4.91406 31.1205 5.10372 32.6322 5.44997C32.6625 5.45691 32.6926 5.46378 32.7225 5.47061C33.5687 5.66392 34.2581 5.8214 35.0135 6.41911C35.4654 6.77668 35.9677 7.40702 36.2154 7.92735C36.6304 8.79927 36.6295 9.66184 36.6285 10.7298C36.6284 10.7837 36.6284 10.8381 36.6284 10.8931V19.2274C36.6284 19.8683 36.1088 20.3879 35.4679 20.3879C34.8269 20.3879 34.3073 19.8683 34.3073 19.2274V10.8931C34.3073 9.58947 34.2844 9.27113 34.1196 8.92487C34.0246 8.72532 33.7466 8.37643 33.5733 8.2393C33.2592 7.99075 33.0557 7.92815 32.114 7.71246C30.7794 7.40679 29.2969 7.23514 27.7309 7.23514Z" fill="url(#paint0_linear_1_934)"/>
<path d="M26.9622 35.2109C26.6527 35.2109 26.1885 34.9014 26.0338 34.592C25.1054 32.5804 24.1769 32.2709 24.1769 32.2709C23.558 32.2709 23.0938 31.8067 23.0938 31.3425C23.0938 30.7235 23.558 30.2593 24.1769 30.2593C24.4864 30.2593 25.7243 30.414 27.117 32.2709C28.6643 30.1045 32.0686 25.9266 35.1634 24.6887C35.7823 24.534 36.4013 24.8434 36.556 25.3076C36.7108 25.9266 36.4013 26.5456 35.9371 26.7003C32.8423 27.6287 29.1286 32.7351 27.8906 34.7467C27.7359 35.0562 27.4264 35.2109 26.9622 35.2109Z" fill="url(#paint1_linear_1_934)"/>
<path fill-rule="evenodd" clip-rule="evenodd" d="M20.0056 16.5086C18.51 16.5086 17.2976 17.721 17.2976 19.2165C17.2976 20.7121 18.51 21.9244 20.0056 21.9244C21.5011 21.9244 22.7135 20.7121 22.7135 19.2165C22.7135 17.721 21.5011 16.5086 20.0056 16.5086ZM14.9766 19.2165C14.9766 16.4391 17.2281 14.1875 20.0056 14.1875C22.783 14.1875 25.0346 16.4391 25.0346 19.2165C25.0346 21.9939 22.783 24.2455 20.0056 24.2455C17.2281 24.2455 14.9766 21.9939 14.9766 19.2165Z" fill="url(#paint2_linear_1_934)"/>
<path fill-rule="evenodd" clip-rule="evenodd" d="M9.93676 19.2187C10.7915 19.2187 11.4844 19.9116 11.4844 20.7664L11.4844 20.7803C11.4844 21.635 10.7915 22.3279 9.93676 22.3279C9.08203 22.3279 8.38914 21.635 8.38914 20.7803L8.38914 20.7664C8.38914 19.9116 9.08203 19.2187 9.93676 19.2187Z" fill="url(#paint3_linear_1_934)"/>
<path fill-rule="evenodd" clip-rule="evenodd" d="M30.0774 16.1094C30.9321 16.1094 31.625 16.8023 31.625 17.657L31.625 17.6709C31.625 18.5256 30.9321 19.2185 30.0774 19.2185C29.2227 19.2185 28.5298 18.5256 28.5298 17.6709L28.5298 17.657C28.5298 16.8023 29.2227 16.1094 30.0774 16.1094Z" fill="url(#paint4_linear_1_934)"/>
<defs>
<linearGradient id="paint0_linear_1_934" x1="19.994" y1="4.91406" x2="19.994" y2="33.5407" gradientUnits="userSpaceOnUse">
<stop stop-color="#C1842D"/>
<stop offset="1" stop-color="#ECC974"/>
</linearGradient>
<linearGradient id="paint1_linear_1_934" x1="29.845" y1="24.6484" x2="29.845" y2="35.2109" gradientUnits="userSpaceOnUse">
<stop stop-color="#C1842D"/>
<stop offset="1" stop-color="#ECC974"/>
</linearGradient>
<linearGradient id="paint2_linear_1_934" x1="20.0056" y1="14.1875" x2="20.0056" y2="24.2455" gradientUnits="userSpaceOnUse">
<stop stop-color="#C1842D"/>
<stop offset="1" stop-color="#ECC974"/>
</linearGradient>
<linearGradient id="paint3_linear_1_934" x1="11.4844" y1="20.7733" x2="8.38914" y2="20.7733" gradientUnits="userSpaceOnUse">
<stop stop-color="#C1842D"/>
<stop offset="1" stop-color="#ECC974"/>
</linearGradient>
<linearGradient id="paint4_linear_1_934" x1="31.625" y1="17.6639" x2="28.5298" y2="17.6639" gradientUnits="userSpaceOnUse">
<stop stop-color="#C1842D"/>
<stop offset="1" stop-color="#ECC974"/>
</linearGradient>
</defs>
</svg>
