<svg width="169" height="24" viewBox="0 0 169 24" fill="none" xmlns="http://www.w3.org/2000/svg">
<path d="M22.2753 12.4552L19.7662 14.9861C19.668 15.0733 19.5589 15.2587 19.4934 15.4987C19.4498 15.6514 19.4279 15.7933 19.4279 15.9133C19.4279 15.9788 19.4498 16.0878 19.4498 16.0878L20.1698 19.2188C20.4644 20.517 20.3771 21.837 19.4389 22.5243C18.4898 23.2115 17.2135 22.906 16.068 22.2188L13.0461 20.4188C12.9261 20.3424 12.708 20.2878 12.4571 20.2878C12.2061 20.2878 11.9879 20.3424 11.8571 20.4188L8.84613 22.2188C7.70074 22.906 6.42438 23.2115 5.47526 22.5133C4.84254 22.0443 4.59162 21.2915 4.59162 20.4406C4.59162 20.0479 4.64618 19.6334 4.74433 19.2188L5.46433 16.0879C5.48618 15.957 5.48618 15.7388 5.42069 15.4988C5.34433 15.2588 5.23526 15.0734 5.14798 14.9861L2.63885 12.4552C1.79885 11.6152 1.32977 10.5678 1.64613 9.55333C1.97341 8.53877 2.96613 7.96061 4.13341 7.76425L7.36254 7.21877C7.47162 7.20789 7.64613 7.13148 7.83162 6.98969C8.02793 6.84784 8.14798 6.69512 8.20249 6.58605L9.98069 2.99697C10.5261 1.90609 11.3771 1.08789 12.4571 1.08789C13.537 1.08789 14.3879 1.90605 14.9225 2.99697L16.7007 6.58605C16.7552 6.69512 16.8752 6.84789 17.0607 6.98969C17.2571 7.13148 17.4316 7.19697 17.5516 7.21877L20.7807 7.76425C21.948 7.96061 22.9407 8.53881 23.268 9.55333C23.3334 9.77153 23.3661 9.98969 23.3661 10.2079C23.3661 11.0043 22.9407 11.7897 22.2753 12.4552Z" fill="url(#paint0_linear_1_714)"/>
<path d="M58.2753 12.4552L55.7662 14.9861C55.668 15.0733 55.5589 15.2587 55.4934 15.4987C55.4498 15.6514 55.4279 15.7933 55.4279 15.9133C55.4279 15.9788 55.4498 16.0878 55.4498 16.0878L56.1698 19.2188C56.4644 20.517 56.3771 21.837 55.4389 22.5243C54.4898 23.2115 53.2135 22.906 52.068 22.2188L49.0461 20.4188C48.9261 20.3424 48.708 20.2878 48.4571 20.2878C48.2061 20.2878 47.9879 20.3424 47.8571 20.4188L44.8461 22.2188C43.7007 22.906 42.4244 23.2115 41.4753 22.5133C40.8425 22.0443 40.5916 21.2915 40.5916 20.4406C40.5916 20.0479 40.6462 19.6334 40.7443 19.2188L41.4643 16.0879C41.4862 15.957 41.4862 15.7388 41.4207 15.4988C41.3443 15.2588 41.2353 15.0734 41.148 14.9861L38.6388 12.4552C37.7988 11.6152 37.3298 10.5678 37.6461 9.55333C37.9734 8.53877 38.9661 7.96061 40.1334 7.76425L43.3625 7.21877C43.4716 7.20789 43.6461 7.13148 43.8316 6.98969C44.0279 6.84784 44.148 6.69512 44.2025 6.58605L45.9807 2.99697C46.5261 1.90609 47.3771 1.08789 48.4571 1.08789C49.537 1.08789 50.3879 1.90605 50.9225 2.99697L52.7007 6.58605C52.7552 6.69512 52.8752 6.84789 53.0607 6.98969C53.2571 7.13148 53.4316 7.19697 53.5516 7.21877L56.7807 7.76425C57.948 7.96061 58.9407 8.53881 59.268 9.55333C59.3334 9.77153 59.3661 9.98969 59.3661 10.2079C59.3661 11.0043 58.9407 11.7897 58.2753 12.4552Z" fill="url(#paint1_linear_1_714)"/>
<path d="M94.2753 12.4552L91.7662 14.9861C91.668 15.0733 91.5589 15.2587 91.4934 15.4987C91.4498 15.6514 91.4279 15.7933 91.4279 15.9133C91.4279 15.9788 91.4498 16.0878 91.4498 16.0878L92.1698 19.2188C92.4644 20.517 92.3771 21.837 91.4389 22.5243C90.4898 23.2115 89.2135 22.906 88.068 22.2188L85.0461 20.4188C84.9261 20.3424 84.708 20.2878 84.4571 20.2878C84.2061 20.2878 83.9879 20.3424 83.8571 20.4188L80.8461 22.2188C79.7007 22.906 78.4244 23.2115 77.4753 22.5133C76.8425 22.0443 76.5916 21.2915 76.5916 20.4406C76.5916 20.0479 76.6462 19.6334 76.7443 19.2188L77.4643 16.0879C77.4862 15.957 77.4862 15.7388 77.4207 15.4988C77.3443 15.2588 77.2353 15.0734 77.148 14.9861L74.6388 12.4552C73.7988 11.6152 73.3298 10.5678 73.6461 9.55333C73.9734 8.53877 74.9661 7.96061 76.1334 7.76425L79.3625 7.21877C79.4716 7.20789 79.6461 7.13148 79.8316 6.98969C80.0279 6.84784 80.148 6.69512 80.2025 6.58605L81.9807 2.99697C82.5261 1.90609 83.3771 1.08789 84.4571 1.08789C85.537 1.08789 86.3879 1.90605 86.9225 2.99697L88.7007 6.58605C88.7552 6.69512 88.8752 6.84789 89.0607 6.98969C89.2571 7.13148 89.4316 7.19697 89.5516 7.21877L92.7807 7.76425C93.948 7.96061 94.9407 8.53881 95.268 9.55333C95.3334 9.77153 95.3661 9.98969 95.3661 10.2079C95.3661 11.0043 94.9407 11.7897 94.2753 12.4552Z" fill="url(#paint2_linear_1_714)"/>
<path d="M130.275 12.4552L127.766 14.9861C127.668 15.0733 127.559 15.2587 127.493 15.4987C127.45 15.6514 127.428 15.7933 127.428 15.9133C127.428 15.9788 127.45 16.0878 127.45 16.0878L128.17 19.2188C128.464 20.517 128.377 21.837 127.439 22.5243C126.49 23.2115 125.213 22.906 124.068 22.2188L121.046 20.4188C120.926 20.3424 120.708 20.2878 120.457 20.2878C120.206 20.2878 119.988 20.3424 119.857 20.4188L116.846 22.2188C115.701 22.906 114.424 23.2115 113.475 22.5133C112.843 22.0443 112.592 21.2915 112.592 20.4406C112.592 20.0479 112.646 19.6334 112.744 19.2188L113.464 16.0879C113.486 15.957 113.486 15.7388 113.421 15.4988C113.344 15.2588 113.235 15.0734 113.148 14.9861L110.639 12.4552C109.799 11.6152 109.33 10.5678 109.646 9.55333C109.973 8.53877 110.966 7.96061 112.133 7.76425L115.363 7.21877C115.472 7.20789 115.646 7.13148 115.832 6.98969C116.028 6.84784 116.148 6.69512 116.202 6.58605L117.981 2.99697C118.526 1.90609 119.377 1.08789 120.457 1.08789C121.537 1.08789 122.388 1.90605 122.922 2.99697L124.701 6.58605C124.755 6.69512 124.875 6.84789 125.061 6.98969C125.257 7.13148 125.432 7.19697 125.552 7.21877L128.781 7.76425C129.948 7.96061 130.941 8.53881 131.268 9.55333C131.333 9.77153 131.366 9.98969 131.366 10.2079C131.366 11.0043 130.941 11.7897 130.275 12.4552Z" fill="url(#paint3_linear_1_714)"/>
<path d="M163.763 14.9866L166.272 12.4557C166.937 11.7902 167.363 11.0048 167.363 10.2084C167.363 9.99018 167.33 9.77202 167.265 9.55382C166.937 8.5393 165.945 7.9611 164.777 7.76474L161.548 7.21925C161.428 7.19746 161.254 7.13197 161.057 6.99018C160.872 6.84838 160.752 6.69561 160.697 6.58653L158.919 2.99746C158.385 1.90654 157.534 1.08838 156.454 1.08838C155.374 1.08838 154.523 1.90658 153.977 2.99746L152.199 6.58653C152.145 6.69561 152.025 6.84833 151.828 6.99018C151.643 7.13197 151.468 7.20838 151.359 7.21925L148.13 7.76474C146.963 7.9611 145.97 8.53925 145.643 9.55382C145.326 10.5683 145.795 11.6157 146.635 12.4557L149.145 14.9866C149.232 15.0739 149.341 15.2593 149.417 15.4993C149.483 15.7393 149.483 15.9575 149.461 16.0884L148.741 19.2193C148.643 19.6339 148.588 20.0484 148.588 20.4411C148.588 21.292 148.839 22.0447 149.472 22.5138C150.421 23.212 151.697 22.9065 152.843 22.2193L155.854 20.4193C155.985 20.3429 156.203 20.2883 156.454 20.2883C156.705 20.2883 156.923 20.3428 157.043 20.4193L160.065 22.2193C161.21 22.9065 162.486 23.212 163.436 22.5247C164.374 21.8375 164.461 20.5175 164.166 19.2193L163.446 16.0883C163.446 16.0883 163.425 15.9793 163.425 15.9138C163.425 15.7938 163.446 15.6519 163.49 15.4992C163.556 15.2592 163.665 15.0737 163.763 14.9865L163.763 14.9866ZM161.886 16.4375L162.596 19.5356V19.5683C162.879 20.7465 162.606 21.1501 162.486 21.2375C162.377 21.3138 161.908 21.4556 160.883 20.8447L157.861 19.0447C157.435 18.7938 156.923 18.6847 156.454 18.6847C155.985 18.6847 155.472 18.7938 155.046 19.0447L152.014 20.8447C150.999 21.4557 150.541 21.3138 150.421 21.2375C150.301 21.1393 150.028 20.7357 150.29 19.5683L151.01 16.4483C151.119 15.9793 151.065 15.4883 150.945 15.0629C150.825 14.6375 150.606 14.1902 150.279 13.8629L147.77 11.332C147.126 10.6883 147.104 10.2301 147.17 10.0338C147.224 9.83741 147.508 9.48829 148.392 9.33561L151.621 8.80105C152.046 8.72469 152.461 8.51741 152.788 8.26649C153.115 8.01557 153.443 7.68833 153.628 7.29557L155.428 3.66285C155.843 2.83372 156.257 2.69197 156.454 2.69197C156.639 2.69197 157.065 2.84469 157.49 3.70649L159.268 7.29557C159.454 7.68828 159.781 8.02649 160.108 8.26649C160.435 8.51736 160.85 8.72464 161.286 8.80105L164.505 9.33561C165.399 9.48833 165.683 9.83746 165.737 10.0338C165.748 10.0774 165.759 10.132 165.759 10.2083C165.759 10.4483 165.639 10.8302 165.137 11.332L162.628 13.8629C162.301 14.1902 162.072 14.6375 161.952 15.0629C161.832 15.4883 161.788 15.9793 161.886 16.4375H161.886Z" fill="url(#paint4_linear_1_714)"/>
<defs>
<linearGradient id="paint0_linear_1_714" x1="12.4565" y1="1.08789" x2="12.4565" y2="22.9116" gradientUnits="userSpaceOnUse">
<stop stop-color="#C1842D"/>
<stop offset="1" stop-color="#ECC974"/>
</linearGradient>
<linearGradient id="paint1_linear_1_714" x1="48.4565" y1="1.08789" x2="48.4565" y2="22.9116" gradientUnits="userSpaceOnUse">
<stop stop-color="#C1842D"/>
<stop offset="1" stop-color="#ECC974"/>
</linearGradient>
<linearGradient id="paint2_linear_1_714" x1="84.4565" y1="1.08789" x2="84.4565" y2="22.9116" gradientUnits="userSpaceOnUse">
<stop stop-color="#C1842D"/>
<stop offset="1" stop-color="#ECC974"/>
</linearGradient>
<linearGradient id="paint3_linear_1_714" x1="120.457" y1="1.08789" x2="120.457" y2="22.9116" gradientUnits="userSpaceOnUse">
<stop stop-color="#C1842D"/>
<stop offset="1" stop-color="#ECC974"/>
</linearGradient>
<linearGradient id="paint4_linear_1_714" x1="156.453" y1="1.08838" x2="156.453" y2="22.9121" gradientUnits="userSpaceOnUse">
<stop stop-color="#C1842D"/>
<stop offset="1" stop-color="#ECC974"/>
</linearGradient>
</defs>
</svg>
